<?xml version="1.0" encoding="utf-8"?>
<!-- Generator: Adobe Illustrator 16.0.0, SVG Export Plug-In . SVG Version: 6.00 Build 0)  -->
<!DOCTYPE svg PUBLIC "-//W3C//DTD SVG 1.1//EN" "http://www.w3.org/Graphics/SVG/1.1/DTD/svg11.dtd">
<svg version="1.1" id="Layer_1" xmlns="http://www.w3.org/2000/svg" xmlns:xlink="http://www.w3.org/1999/xlink" x="0px" y="0px"
	 width="130px" height="50px" viewBox="0 0 130 50" enable-background="new 0 0 130 50" xml:space="preserve">
<g>
	<g>
		<path d="M33.309,12.934c2.879,0.04,5.392,0.122,7.216,0.244c0.446,0.243-0.527,1.581-0.973,1.865
			c-1.986-0.082-4.419-0.123-7.136-0.082c-1.338,3.122-2.716,6.569-3.568,9c-4.217,11.759-6.041,18.448-5.96,21.084
			c0,0.405,0.122,0.647,0.284,0.729c-1.703,0-5.716-3.001-5.757-3.771c-0.04-2.555,3.081-11.716,4.987-16.907
			c0.974-2.594,2.433-6.283,4.054-10.014c-3.851,0.123-7.866,0.325-11.716,0.608l-1.703,3.853
			c-2.636,5.92-5.677,13.743-5.677,16.178c0,0.404,0.081,0.646,0.244,0.729c-1.743,0-5.271-2.556-5.271-3.528
			c0-2.269,3.487-10.583,4.826-13.704l1.296-2.96c-3.366,0.366-6.285,0.73-8.353,1.177c-0.447-0.447,0.649-2.798,1.581-3.285
			c1.744-0.324,4.623-0.608,8.109-0.81c2.229-4.865,4.582-9.65,6.447-11.959c0.201-0.245,0.568-0.448,0.891-0.448
			c1.257,0,4.501,1.663,4.541,2.474c-0.608,0-2.432,3.081-3.162,4.542c-0.77,1.459-1.663,3.242-2.554,5.108
			c3.771-0.122,7.704-0.203,11.474-0.203c2.271-5.19,4.662-10.137,6.081-12.124c0.203-0.283,0.527-0.608,0.933-0.608
			c1.297,0,4.338,1.622,4.743,2.635c-0.811,0.123-2.635,3.407-3.607,5.272C35.133,8.88,34.283,10.745,33.309,12.934z"/>
		<path d="M38.905,13.421c0.162-0.205,0.405-0.243,0.689-0.243c1.459,0,4.298,1.904,4.054,1.985
			c-0.487,0.285-1.46,2.108-2.027,3.284c-1.744,3.648-5.312,11.396-5.555,14.354c0,0.285,0.082,0.446,0.243,0.446
			c1.338,0,15.448-20.031,16.339-20.191c1.217-0.203,4.055,1.621,4.095,1.987c-0.486,0.284-1.5,2.067-2.027,3.282
			c-1.865,4.136-2.879,6.73-3.731,9.122c-1.459,4.097-2.877,8.313-2.392,9.528c-1.824-0.325-4.946-2.39-4.946-3.485
			c0-1.217,2.797-8.678,3.893-11.354c-3.973,6.125-9.649,14.271-10.177,14.314c-2.919,0.081-6.771-2.556-6.69-4.744
			C30.796,29.962,35.458,17.92,38.905,13.421z"/>
		<path d="M56.786,29.394c-1.338-1.053-2.352-2.474-2.555-3.811c-0.648-3.892,4.784-13.216,11.028-13.216
			c0.891,0,1.5,0.283,2.108,0.486h0.242c0.406,0,0.813,0.081,1.217,0.243c3.893-0.122,7.582,0.041,11.109,0.284
			c0.285,0.243-0.689,1.215-1.135,1.5c-1.58-0.041-6.406,0.164-7.299,0.325c0.689,0.892,1.137,1.906,1.137,2.515
			c0,8.188-6.365,13.419-11.393,13.419c3.404,3.283,6.852,8.271,6.852,11.107c0,5.032-7.622,7.95-13.178,7.625
			c-6.649-0.365-11.554-3.69-10.541-8.068c0.932-4.097,9.932-8.026,11.879-8.678c-0.446-0.446-1.5-1.297-1.785-1.418
			C54.556,31.259,55.69,30.166,56.786,29.394z M57.149,34.1c-2.797,1.982-7.014,4.902-7.338,8.067
			c-0.324,2.918,1.825,5.513,5.636,5.636c3.528,0.119,6.569-2.028,6.569-5.435C62.016,39.368,59.542,36.65,57.149,34.1z
			 M67.732,16.381c0.041-0.447,0-1.947-0.688-1.947c-3.246,0-7.584,8.88-7.625,12.447c0,0.933,0.204,1.866,1.459,1.866
			C63.962,28.747,67.367,20.88,67.732,16.381z"/>
		<path d="M70.367,32.801c0-0.893,1.34-5.313,4.42-12.57c1.258-3.04,3.893-8.797,5.189-11.351c0.852-1.704,1.904-3.691,2.514-4.339
			c0.121-0.162,0.447-0.406,0.689-0.406c1.459-0.04,3.934,1.582,4.014,1.947c-0.486,0.285-1.42,2.108-2.027,3.285
			c-1.338,2.553-5.512,11.473-7.582,17.353c1.662-3.324,4.381-7.136,6.854-9.893c1.258-1.419,4.297-4.379,6.244-4.379
			c1.539,0,4.297,2.189,4.416,2.838c-1.5,2.919-8.635,20.555-7.135,21.69c-1.822-0.325-5.107-2.431-5.107-3.526
			c0-2.919,4.865-14.434,6.852-17.921c-0.486-0.284-1.176,0.203-2.066,0.973c-2.961,2.596-12.449,15.813-12.449,19.138
			c0,0.201,0,0.405,0.082,0.609C73.406,35.923,70.408,33.895,70.367,32.801z"/>
		<path d="M97.248,31.706c0,1.136,0.568,1.784,1.297,1.784c2.637,0,7.785-2.92,12.773-7.907c0.445,0.041,0.199,1.097,0.08,1.378
			c-1.541,2.84-8.84,9.489-12.691,9.489c-3.365,0-6.85-3.122-6.85-5.716c0-6.529,7.66-18.693,13.785-18.693
			c3.404,0,6.729,2.513,6.729,5.757c0,2.92-6.729,7.217-10.662,8.109c-1.338,0.325-2.514,0.202-3.08,0.202
			C97.775,28.18,97.248,30.166,97.248,31.706z M107.465,14.676c-1.986,0-5.674,4.826-7.986,9.569
			c0.934-0.081,1.502-0.121,2.473-0.567c1.986-0.893,5.393-3.852,6.203-7.338C108.398,15.285,108.113,14.676,107.465,14.676z"/>
		<path d="M114.805,19.258c0-4.054,3.893-7.339,7.826-7.418c2.633-0.083,5.795,1.742,6.324,4.336
			c-0.082,1.663-4.014,4.663-4.381,4.704c-0.363,0.042-0.525-0.082-0.525-0.365c0.082-0.973,0.363-3.285,0.041-4.744
			c-0.285-1.418-1.055-2.107-2.23-2.107c-1.541,0-2.109,1.095-2.068,2.432c0.121,4.175,5.352,12.203,5.596,14.148
			c0.039,0.202,0.082,0.447,0.082,0.691c0,3.854-5.799,5.675-9.164,5.758c-4.42,0.123-9.324-1.704-9.406-5.149
			c-0.08-3.122,6.123-7.663,8.797-8.881C115.211,21.569,114.805,20.271,114.805,19.258z M115.494,34.707
			c1.016,0,4.012-0.488,3.973-2.434c-0.121-2.312-1.945-5.555-3.283-8.516c-3.162,2.514-4.826,4.907-4.906,7.138
			C111.195,33.285,113.061,34.707,115.494,34.707z"/>
	</g>
	<g>
		<path d="M101.395,38.564h0.447c0.244,0,0.42,0.021,0.523,0.068c0.105,0.041,0.188,0.112,0.252,0.214
			c0.063,0.104,0.094,0.223,0.094,0.361c0,0.146-0.035,0.268-0.104,0.366c-0.07,0.099-0.176,0.172-0.316,0.224l0.525,0.985h-0.461
			l-0.5-0.939h-0.039v0.939h-0.422V38.564z M101.816,39.431h0.133c0.133,0,0.227-0.016,0.277-0.052
			c0.051-0.037,0.076-0.094,0.076-0.177c0-0.048-0.012-0.091-0.037-0.125c-0.025-0.036-0.061-0.063-0.102-0.077
			c-0.041-0.016-0.119-0.024-0.232-0.024h-0.115V39.431z"/>
		<path d="M104.207,38.509c0.313,0,0.582,0.111,0.809,0.34c0.225,0.229,0.338,0.506,0.338,0.832c0,0.324-0.111,0.597-0.332,0.823
			c-0.225,0.222-0.496,0.335-0.813,0.335c-0.334,0-0.609-0.117-0.832-0.346c-0.219-0.232-0.33-0.503-0.33-0.82
			c0-0.212,0.053-0.407,0.154-0.584c0.104-0.179,0.244-0.319,0.424-0.424S103.998,38.509,104.207,38.509z M104.201,38.922
			c-0.205,0-0.377,0.07-0.518,0.214c-0.139,0.142-0.211,0.325-0.211,0.545c0,0.245,0.088,0.439,0.266,0.58
			c0.137,0.113,0.293,0.171,0.471,0.171c0.199,0,0.371-0.075,0.512-0.219s0.211-0.321,0.211-0.536c0-0.21-0.072-0.39-0.213-0.536
			C104.576,38.996,104.404,38.922,104.201,38.922z"/>
		<path d="M106.801,38.509c0.313,0,0.582,0.111,0.809,0.34s0.34,0.506,0.34,0.832c0,0.324-0.111,0.597-0.336,0.823
			c-0.223,0.222-0.492,0.335-0.811,0.335c-0.334,0-0.609-0.117-0.83-0.346c-0.221-0.232-0.33-0.503-0.33-0.82
			c0-0.212,0.051-0.407,0.154-0.584c0.102-0.179,0.244-0.319,0.422-0.424C106.398,38.561,106.592,38.509,106.801,38.509z
			 M106.795,38.922c-0.205,0-0.377,0.07-0.518,0.214c-0.141,0.142-0.209,0.325-0.209,0.545c0,0.245,0.088,0.439,0.264,0.58
			c0.137,0.113,0.293,0.171,0.471,0.171c0.201,0,0.369-0.075,0.512-0.219c0.141-0.144,0.211-0.321,0.211-0.536
			c0-0.21-0.072-0.39-0.213-0.536C107.17,38.996,106.998,38.922,106.795,38.922z"/>
		<path d="M108.563,38.564h0.41l0.516,1.547l0.518-1.547h0.412l0.373,2.219h-0.41l-0.238-1.4l-0.471,1.4h-0.373l-0.467-1.4
			l-0.244,1.4h-0.41L108.563,38.564z"/>
		<path d="M112.291,38.867l-0.314,0.275c-0.109-0.154-0.221-0.23-0.334-0.23c-0.057,0-0.102,0.016-0.137,0.044
			c-0.035,0.03-0.053,0.063-0.053,0.103c0,0.036,0.012,0.071,0.039,0.105c0.033,0.042,0.137,0.14,0.309,0.282
			c0.162,0.138,0.26,0.221,0.293,0.258c0.086,0.086,0.146,0.167,0.182,0.248c0.035,0.076,0.055,0.164,0.055,0.259
			c0,0.18-0.063,0.332-0.189,0.449c-0.125,0.121-0.291,0.179-0.492,0.179c-0.158,0-0.295-0.038-0.414-0.117
			c-0.115-0.076-0.215-0.197-0.301-0.365l0.355-0.213c0.105,0.196,0.229,0.296,0.369,0.296c0.072,0,0.133-0.024,0.182-0.065
			c0.051-0.042,0.076-0.091,0.076-0.146c0-0.05-0.02-0.101-0.057-0.15c-0.037-0.052-0.119-0.128-0.246-0.232
			c-0.242-0.196-0.398-0.348-0.469-0.455c-0.072-0.107-0.105-0.215-0.105-0.321c0-0.153,0.059-0.285,0.176-0.396
			c0.117-0.109,0.262-0.165,0.434-0.165c0.111,0,0.215,0.024,0.316,0.077C112.064,38.637,112.174,38.731,112.291,38.867z"/>
		<path d="M114.986,39.911l0.252,0.288l-0.113,0.104l-0.113,0.104l0.355,0.376h-0.512l-0.145-0.152
			c-0.234,0.138-0.451,0.208-0.65,0.208c-0.17,0-0.309-0.05-0.414-0.149c-0.104-0.099-0.156-0.229-0.156-0.381
			c0-0.118,0.029-0.23,0.088-0.336c0.061-0.105,0.162-0.21,0.307-0.323c-0.143-0.192-0.213-0.362-0.213-0.512
			c0-0.106,0.045-0.216,0.141-0.323c0.094-0.105,0.229-0.162,0.4-0.162s0.307,0.055,0.4,0.162c0.092,0.105,0.137,0.213,0.137,0.317
			c0,0.085-0.02,0.168-0.061,0.243c-0.043,0.08-0.143,0.193-0.297,0.347c0.182,0.21,0.297,0.342,0.35,0.395
			C114.773,40.092,114.855,40.024,114.986,39.911z M114.436,40.34c-0.076-0.079-0.188-0.204-0.328-0.379
			c-0.148,0.123-0.223,0.229-0.223,0.325c0,0.04,0.021,0.08,0.061,0.119c0.043,0.036,0.092,0.052,0.154,0.052
			C114.189,40.457,114.301,40.417,114.436,40.34z M114.186,39.423c0.111-0.096,0.166-0.18,0.166-0.253
			c0-0.04-0.012-0.071-0.037-0.093c-0.025-0.026-0.057-0.038-0.1-0.038c-0.039,0-0.07,0.016-0.098,0.04
			c-0.027,0.028-0.039,0.059-0.039,0.095C114.078,39.247,114.113,39.329,114.186,39.423z"/>
		<path d="M116.395,38.564h0.434l0.559,1.575l0.566-1.575h0.434l-0.801,2.219h-0.406L116.395,38.564z"/>
		<path d="M118.727,38.564h1.211v0.413h-0.791v0.401h0.791v0.405h-0.791v0.582h0.791v0.417h-1.211V38.564z"/>
		<path d="M120.332,38.564h0.404l0.951,1.46v-1.46h0.42v2.219h-0.404l-0.947-1.456v1.456h-0.424V38.564z"/>
		<path d="M122.6,38.564h0.426v1.435c0,0.125,0.01,0.212,0.031,0.26c0.021,0.054,0.059,0.096,0.107,0.125
			c0.051,0.029,0.109,0.048,0.18,0.048c0.076,0,0.139-0.019,0.193-0.054c0.053-0.034,0.092-0.076,0.111-0.129
			c0.021-0.052,0.031-0.155,0.031-0.301v-1.384h0.424v1.323c0,0.222-0.014,0.377-0.037,0.465c-0.025,0.087-0.074,0.168-0.145,0.25
			c-0.072,0.081-0.154,0.14-0.244,0.181c-0.094,0.036-0.201,0.056-0.324,0.056c-0.16,0-0.301-0.038-0.42-0.111
			c-0.119-0.074-0.203-0.165-0.256-0.276c-0.051-0.111-0.078-0.299-0.078-0.563V38.564z"/>
		<path d="M124.596,38.564h1.209v0.413h-0.791v0.401h0.791v0.405h-0.791v0.582h0.791v0.417h-1.209V38.564z"/>
	</g>
</g>
</svg>
