<?xml version="1.0" encoding="utf-8"?>
<!-- Generator: Adobe Illustrator 16.0.0, SVG Export Plug-In . SVG Version: 6.00 Build 0)  -->
<!DOCTYPE svg PUBLIC "-//W3C//DTD SVG 1.1//EN" "http://www.w3.org/Graphics/SVG/1.1/DTD/svg11.dtd">
<svg version="1.1" id="Layer_1" xmlns="http://www.w3.org/2000/svg" xmlns:xlink="http://www.w3.org/1999/xlink" x="0px" y="0px"
	 width="130px" height="50px" viewBox="0 0 130 50" enable-background="new 0 0 130 50" xml:space="preserve">
<g>
	<path fill="#FFFFFF" d="M51.88,13.896v4.757c0,5.855-2.823,9.044-8.573,9.044h-2.719v13.748h-5.75V4.852h8.469
		C49.058,4.852,51.88,8.041,51.88,13.896z M40.588,10.08v12.39h2.719c1.83,0,2.823-0.836,2.823-3.45v-5.49
		c0-2.614-0.993-3.451-2.823-3.451L40.588,10.08L40.588,10.08z"/>
	<path fill="#FFFFFF" d="M54.548,4.852h5.75v31.367h9.462v5.227H54.548V4.852z"/>
	<path fill="#FFFFFF" d="M90.882,41.445h-5.803l-0.993-6.639h-7.059l-0.992,6.639h-5.279l5.854-36.593h8.418L90.882,41.445z
		 M77.76,29.84h5.542l-2.719-18.505h-0.104L77.76,29.84z"/>
	<path fill="#FFFFFF" d="M110.174,27.801v4.863c0,5.854-2.928,9.199-8.572,9.199c-5.646,0-8.574-3.346-8.574-9.199V13.635
		c0-5.855,2.929-9.201,8.574-9.201c5.645,0,8.572,3.346,8.572,9.201v3.555h-5.438v-3.921c0-2.614-1.149-3.607-2.979-3.607
		c-1.83,0-2.98,0.993-2.98,3.607v19.76c0,2.613,1.15,3.556,2.98,3.556c1.829,0,2.979-0.94,2.979-3.556v-5.229H110.174z"/>
	<path fill="#FFFFFF" d="M119.43,20.274h7.894v5.228h-7.894v10.717h9.932v5.227h-15.684V4.852h15.684v5.228h-9.932V20.274z"/>
</g>
<g>
	<path fill="#FFFFFF" d="M89.42,43.527h0.727c0.396,0,0.68,0.035,0.849,0.105c0.169,0.071,0.304,0.189,0.407,0.354
		c0.102,0.166,0.152,0.361,0.152,0.586c0,0.236-0.057,0.434-0.17,0.593s-0.283,0.278-0.513,0.36l0.853,1.6h-0.748l-0.81-1.523
		h-0.063v1.523H89.42V43.527z M90.104,44.934h0.215c0.218,0,0.367-0.027,0.449-0.084c0.082-0.059,0.123-0.152,0.123-0.285
		c0-0.078-0.02-0.146-0.061-0.205s-0.096-0.101-0.163-0.125c-0.067-0.025-0.192-0.039-0.376-0.039h-0.188V44.934L90.104,44.934z"/>
	<path fill="#FFFFFF" d="M93.979,43.438c0.508,0,0.944,0.186,1.313,0.554c0.366,0.368,0.549,0.817,0.549,1.348
		c0,0.524-0.181,0.97-0.541,1.332c-0.361,0.364-0.801,0.546-1.316,0.546c-0.539,0-0.987-0.188-1.346-0.56
		c-0.357-0.374-0.535-0.817-0.535-1.331c0-0.344,0.082-0.66,0.25-0.948c0.166-0.289,0.396-0.519,0.687-0.687
		C93.329,43.521,93.643,43.438,93.979,43.438z M93.971,44.107c-0.334,0-0.613,0.115-0.841,0.348c-0.228,0.23-0.34,0.525-0.34,0.883
		c0,0.396,0.144,0.712,0.428,0.943c0.224,0.181,0.478,0.271,0.765,0.271c0.324,0,0.602-0.117,0.83-0.353s0.344-0.524,0.344-0.869
		c0-0.343-0.116-0.632-0.346-0.869C94.579,44.227,94.3,44.107,93.971,44.107z"/>
	<path fill="#FFFFFF" d="M98.184,43.438c0.508,0,0.946,0.186,1.313,0.554s0.549,0.817,0.549,1.348c0,0.524-0.18,0.97-0.541,1.332
		c-0.362,0.364-0.801,0.546-1.315,0.546c-0.539,0-0.988-0.188-1.347-0.56c-0.356-0.374-0.536-0.817-0.536-1.331
		c0-0.344,0.084-0.66,0.25-0.948c0.168-0.289,0.396-0.519,0.688-0.687C97.535,43.521,97.848,43.438,98.184,43.438z M98.176,44.107
		c-0.333,0-0.613,0.115-0.84,0.348c-0.227,0.23-0.34,0.525-0.34,0.883c0,0.396,0.143,0.712,0.428,0.943
		c0.223,0.181,0.477,0.271,0.764,0.271c0.326,0,0.603-0.117,0.83-0.353c0.229-0.235,0.344-0.524,0.344-0.869
		c0-0.343-0.114-0.632-0.346-0.869C98.785,44.225,98.506,44.107,98.176,44.107z"/>
	<path fill="#FFFFFF" d="M101.04,43.527h0.667l0.834,2.51l0.842-2.51h0.666l0.604,3.598h-0.661l-0.386-2.271l-0.766,2.271h-0.604
		l-0.758-2.271l-0.396,2.271h-0.667L101.04,43.527z"/>
	<path fill="#FFFFFF" d="M107.086,44.018l-0.507,0.447c-0.179-0.248-0.36-0.372-0.544-0.372c-0.09,0-0.164,0.023-0.221,0.072
		c-0.059,0.048-0.086,0.103-0.086,0.162c0,0.062,0.021,0.118,0.062,0.171c0.056,0.072,0.224,0.227,0.502,0.463
		c0.261,0.219,0.419,0.355,0.476,0.413c0.14,0.142,0.236,0.274,0.295,0.401c0.059,0.129,0.086,0.269,0.086,0.42
		c0,0.296-0.102,0.539-0.305,0.73c-0.205,0.192-0.471,0.289-0.799,0.289c-0.256,0-0.479-0.063-0.67-0.188
		c-0.189-0.127-0.352-0.322-0.488-0.592l0.576-0.349c0.174,0.317,0.372,0.478,0.598,0.478c0.117,0,0.217-0.035,0.297-0.104
		s0.119-0.146,0.119-0.236c0-0.082-0.029-0.162-0.09-0.244s-0.193-0.207-0.4-0.375c-0.391-0.318-0.645-0.565-0.758-0.738
		c-0.115-0.174-0.172-0.348-0.172-0.52c0-0.25,0.094-0.465,0.285-0.644c0.189-0.179,0.424-0.269,0.703-0.269
		c0.18,0,0.352,0.041,0.514,0.125C106.721,43.646,106.896,43.797,107.086,44.018z"/>
	<path fill="#FFFFFF" d="M111.459,45.712l0.408,0.468l-0.186,0.168l-0.185,0.166l0.578,0.611h-0.83l-0.238-0.244
		c-0.377,0.223-0.729,0.335-1.053,0.335c-0.274,0-0.5-0.081-0.67-0.241c-0.17-0.162-0.255-0.369-0.255-0.621
		c0-0.19,0.048-0.371,0.145-0.541c0.098-0.17,0.262-0.346,0.496-0.525c-0.23-0.313-0.347-0.587-0.347-0.827
		c0-0.179,0.075-0.353,0.229-0.524c0.154-0.172,0.37-0.26,0.648-0.26c0.282,0,0.499,0.086,0.649,0.258
		c0.15,0.17,0.226,0.344,0.226,0.518c0,0.138-0.033,0.27-0.104,0.395c-0.068,0.125-0.229,0.313-0.478,0.557
		c0.292,0.346,0.479,0.561,0.565,0.645C111.111,46.005,111.245,45.895,111.459,45.712z M110.564,46.404
		c-0.125-0.123-0.303-0.328-0.531-0.614c-0.242,0.2-0.362,0.376-0.362,0.524c0,0.07,0.032,0.136,0.099,0.193
		c0.067,0.059,0.149,0.088,0.25,0.088C110.165,46.598,110.348,46.533,110.564,46.404z M110.157,44.919
		c0.181-0.153,0.271-0.292,0.271-0.41c0-0.063-0.021-0.112-0.062-0.151c-0.04-0.039-0.095-0.06-0.16-0.06
		c-0.063,0-0.115,0.022-0.158,0.065c-0.043,0.045-0.063,0.096-0.063,0.154C109.984,44.637,110.042,44.77,110.157,44.919z"/>
	<path fill="#FFFFFF" d="M113.738,43.527h0.703l0.906,2.556l0.918-2.556h0.702l-1.296,3.598h-0.66L113.738,43.527z"/>
	<path fill="#FFFFFF" d="M117.521,43.527h1.963v0.67h-1.283v0.65h1.283v0.658h-1.283v0.945h1.283v0.673h-1.963V43.527z"/>
	<path fill="#FFFFFF" d="M120.125,43.527h0.656l1.539,2.367v-2.367h0.686v3.598h-0.658l-1.537-2.359v2.359h-0.686V43.527z"/>
	<path fill="#FFFFFF" d="M123.803,43.527h0.688v2.326c0,0.201,0.018,0.342,0.053,0.426c0.035,0.082,0.095,0.148,0.174,0.199
		c0.08,0.049,0.179,0.074,0.294,0.074c0.118,0,0.223-0.027,0.311-0.084c0.088-0.056,0.148-0.125,0.182-0.211s0.051-0.249,0.051-0.49
		v-2.24h0.687v2.146c0,0.361-0.021,0.612-0.062,0.753s-0.117,0.275-0.232,0.406c-0.115,0.13-0.247,0.227-0.397,0.289
		c-0.149,0.063-0.323,0.095-0.522,0.095c-0.262,0-0.488-0.06-0.682-0.18s-0.33-0.271-0.414-0.45
		c-0.084-0.182-0.125-0.484-0.125-0.913v-2.146H123.803z"/>
	<path fill="#FFFFFF" d="M127.036,43.527H129v0.67h-1.284v0.65H129v0.658h-1.284v0.945H129v0.673h-1.964V43.527z"/>
</g>
<path fill="#EFD600" d="M15.514,12.74c-2.755,0-4.984,2.234-4.984,4.998c0,2.759,2.237,5.003,4.997,5.003
	c2.759,0,5.012-2.239,5.012-5.003C20.54,14.974,18.287,12.74,15.514,12.74z M15.514,3.205C7.501,3.205,1,9.716,1,17.738
	C1,27.764,15.514,42.68,15.514,42.68s14.551-14.916,14.551-24.942C30.065,9.716,23.541,3.205,15.514,3.205z M15.514,26.212
	c-4.651-0.021-8.451-3.811-8.451-8.474c0-4.665,3.8-8.465,8.451-8.465c4.682,0,8.488,3.8,8.488,8.465
	C24.002,22.401,20.196,26.212,15.514,26.212z"/>
</svg>
