<?xml version="1.0" encoding="utf-8"?>
<!-- Generator: Adobe Illustrator 16.0.0, SVG Export Plug-In . SVG Version: 6.00 Build 0)  -->
<!DOCTYPE svg PUBLIC "-//W3C//DTD SVG 1.1//EN" "http://www.w3.org/Graphics/SVG/1.1/DTD/svg11.dtd">
<svg version="1.1" id="Layer_1" xmlns="http://www.w3.org/2000/svg" xmlns:xlink="http://www.w3.org/1999/xlink" x="0px" y="0px"
	 width="130px" height="50px" viewBox="0 0 130 50" enable-background="new 0 0 130 50" xml:space="preserve">
<g>
	<path fill="#FFFFFF" d="M33.309,12.934c2.879,0.04,5.392,0.122,7.216,0.244c0.446,0.243-0.527,1.581-0.973,1.865
		c-1.986-0.082-4.419-0.123-7.136-0.082c-1.338,3.122-2.716,6.569-3.568,9c-4.217,11.759-6.041,18.448-5.96,21.084
		c0,0.405,0.122,0.647,0.284,0.729c-1.703,0-5.716-3.001-5.757-3.771c-0.04-2.555,3.081-11.716,4.987-16.907
		c0.974-2.594,2.433-6.283,4.054-10.014c-3.851,0.123-7.866,0.325-11.716,0.608l-1.703,3.853c-2.636,5.92-5.677,13.743-5.677,16.178
		c0,0.404,0.081,0.646,0.244,0.729c-1.743,0-5.271-2.556-5.271-3.528c0-2.269,3.487-10.583,4.826-13.704l1.296-2.96
		c-3.366,0.366-6.285,0.73-8.353,1.177c-0.447-0.447,0.649-2.798,1.581-3.285c1.744-0.324,4.623-0.608,8.109-0.81
		c2.229-4.865,4.582-9.65,6.447-11.959c0.201-0.245,0.568-0.448,0.891-0.448c1.257,0,4.501,1.663,4.541,2.474
		c-0.608,0-2.432,3.081-3.162,4.542c-0.77,1.459-1.663,3.242-2.554,5.108c3.771-0.122,7.704-0.203,11.474-0.203
		c2.271-5.19,4.662-10.137,6.081-12.124c0.203-0.283,0.527-0.608,0.933-0.608c1.297,0,4.338,1.622,4.743,2.635
		c-0.811,0.123-2.635,3.407-3.607,5.272C35.133,8.88,34.283,10.745,33.309,12.934z"/>
	<path fill="#FFFFFF" d="M38.905,13.421c0.162-0.205,0.405-0.243,0.689-0.243c1.459,0,4.298,1.904,4.054,1.985
		c-0.487,0.285-1.46,2.108-2.027,3.284c-1.744,3.648-5.312,11.396-5.555,14.354c0,0.285,0.082,0.446,0.243,0.446
		c1.338,0,15.448-20.031,16.339-20.191c1.217-0.203,4.055,1.621,4.095,1.987c-0.486,0.284-1.5,2.067-2.027,3.282
		c-1.865,4.136-2.879,6.73-3.731,9.122c-1.459,4.097-2.877,8.313-2.392,9.528c-1.824-0.325-4.946-2.39-4.946-3.485
		c0-1.217,2.797-8.678,3.893-11.354c-3.973,6.125-9.649,14.271-10.177,14.314c-2.919,0.081-6.771-2.556-6.69-4.744
		C30.796,29.962,35.458,17.92,38.905,13.421z"/>
	<path fill="#FFFFFF" d="M56.786,29.394c-1.338-1.053-2.352-2.474-2.555-3.811c-0.648-3.892,4.784-13.216,11.028-13.216
		c0.891,0,1.5,0.283,2.108,0.486h0.242c0.406,0,0.813,0.081,1.217,0.243c3.893-0.122,7.582,0.041,11.109,0.284
		c0.285,0.243-0.689,1.215-1.135,1.5c-1.58-0.041-6.406,0.164-7.299,0.325c0.689,0.892,1.137,1.906,1.137,2.515
		c0,8.188-6.365,13.419-11.393,13.419c3.404,3.283,6.852,8.271,6.852,11.107c0,5.032-7.622,7.95-13.178,7.625
		c-6.649-0.365-11.554-3.69-10.541-8.068c0.932-4.097,9.932-8.026,11.879-8.678c-0.446-0.446-1.5-1.297-1.785-1.418
		C54.556,31.259,55.69,30.166,56.786,29.394z M57.149,34.1c-2.797,1.982-7.014,4.902-7.338,8.067
		c-0.324,2.918,1.825,5.513,5.636,5.636c3.528,0.119,6.569-2.028,6.569-5.435C62.016,39.368,59.542,36.65,57.149,34.1z
		 M67.732,16.381c0.041-0.447,0-1.947-0.688-1.947c-3.246,0-7.584,8.88-7.625,12.447c0,0.933,0.204,1.866,1.459,1.866
		C63.962,28.747,67.367,20.88,67.732,16.381z"/>
	<path fill="#FFFFFF" d="M70.367,32.801c0-0.893,1.34-5.313,4.42-12.57c1.258-3.04,3.893-8.797,5.189-11.351
		c0.852-1.704,1.904-3.691,2.514-4.339c0.121-0.162,0.447-0.406,0.689-0.406c1.459-0.04,3.934,1.582,4.014,1.947
		c-0.486,0.285-1.42,2.108-2.027,3.285c-1.338,2.553-5.512,11.473-7.582,17.353c1.662-3.324,4.381-7.136,6.854-9.893
		c1.258-1.419,4.297-4.379,6.244-4.379c1.539,0,4.297,2.189,4.416,2.838c-1.5,2.919-8.635,20.555-7.135,21.69
		c-1.822-0.325-5.107-2.431-5.107-3.526c0-2.919,4.865-14.434,6.852-17.921c-0.486-0.284-1.176,0.203-2.066,0.973
		c-2.961,2.596-12.449,15.813-12.449,19.138c0,0.201,0,0.405,0.082,0.609C73.406,35.923,70.408,33.895,70.367,32.801z"/>
	<path fill="#FFFFFF" d="M97.248,31.706c0,1.136,0.568,1.784,1.297,1.784c2.637,0,7.785-2.92,12.773-7.907
		c0.445,0.041,0.199,1.097,0.08,1.378c-1.541,2.84-8.84,9.489-12.691,9.489c-3.365,0-6.85-3.122-6.85-5.716
		c0-6.529,7.66-18.693,13.785-18.693c3.404,0,6.729,2.513,6.729,5.757c0,2.92-6.729,7.217-10.662,8.109
		c-1.338,0.325-2.514,0.202-3.08,0.202C97.775,28.18,97.248,30.166,97.248,31.706z M107.465,14.676
		c-1.986,0-5.674,4.826-7.986,9.569c0.934-0.081,1.502-0.121,2.473-0.567c1.986-0.893,5.393-3.852,6.203-7.338
		C108.398,15.285,108.113,14.676,107.465,14.676z"/>
	<path fill="#FFFFFF" d="M114.805,19.258c0-4.054,3.893-7.339,7.826-7.418c2.633-0.083,5.795,1.742,6.324,4.336
		c-0.082,1.663-4.014,4.663-4.381,4.704c-0.363,0.042-0.525-0.082-0.525-0.365c0.082-0.973,0.363-3.285,0.041-4.744
		c-0.285-1.418-1.055-2.107-2.23-2.107c-1.541,0-2.109,1.095-2.068,2.432c0.121,4.175,5.352,12.203,5.596,14.148
		c0.039,0.202,0.082,0.447,0.082,0.691c0,3.854-5.799,5.675-9.164,5.758c-4.42,0.123-9.324-1.704-9.406-5.149
		c-0.08-3.122,6.123-7.663,8.797-8.881C115.211,21.569,114.805,20.271,114.805,19.258z M115.494,34.707
		c1.016,0,4.012-0.488,3.973-2.434c-0.121-2.312-1.945-5.555-3.283-8.516c-3.162,2.514-4.826,4.907-4.906,7.138
		C111.195,33.285,113.061,34.707,115.494,34.707z"/>
</g>
<g>
	<path fill="#FFFFFF" d="M95.384,39.688h0.558c0.305,0,0.523,0.026,0.652,0.085c0.132,0.052,0.232,0.141,0.314,0.267
		c0.077,0.129,0.116,0.277,0.116,0.451c0,0.183-0.044,0.333-0.129,0.456c-0.088,0.122-0.22,0.214-0.395,0.278l0.655,1.228h-0.575
		l-0.623-1.17h-0.049v1.17h-0.525V39.688z M95.909,40.767h0.166c0.166,0,0.282-0.02,0.345-0.064c0.064-0.046,0.096-0.116,0.096-0.22
		c0-0.061-0.015-0.113-0.047-0.156c-0.031-0.045-0.075-0.078-0.126-0.096c-0.052-0.02-0.148-0.03-0.29-0.03h-0.144V40.767z"/>
	<path fill="#FFFFFF" d="M98.889,39.618c0.39,0,0.726,0.14,1.007,0.423c0.281,0.285,0.422,0.632,0.422,1.038
		c0,0.403-0.139,0.743-0.414,1.025c-0.28,0.275-0.617,0.417-1.012,0.417c-0.417,0-0.76-0.146-1.038-0.431
		c-0.271-0.289-0.41-0.626-0.41-1.022c0-0.264,0.065-0.507,0.191-0.728c0.13-0.223,0.306-0.398,0.528-0.527
		C98.388,39.683,98.628,39.618,98.889,39.618z M98.882,40.133c-0.256,0-0.47,0.088-0.646,0.267c-0.173,0.177-0.263,0.405-0.263,0.68
		c0,0.306,0.11,0.547,0.331,0.723c0.17,0.141,0.364,0.213,0.587,0.213c0.248,0,0.463-0.094,0.637-0.272
		c0.176-0.179,0.263-0.4,0.263-0.669c0-0.261-0.09-0.485-0.265-0.667C99.349,40.226,99.135,40.133,98.882,40.133z"/>
	<path fill="#FFFFFF" d="M102.122,39.618c0.389,0,0.725,0.14,1.007,0.423c0.282,0.285,0.424,0.632,0.424,1.038
		c0,0.403-0.139,0.743-0.419,1.025c-0.277,0.275-0.613,0.417-1.01,0.417c-0.416,0-0.76-0.146-1.034-0.431
		c-0.275-0.289-0.412-0.626-0.412-1.022c0-0.264,0.063-0.507,0.192-0.728c0.127-0.223,0.304-0.398,0.526-0.527
		C101.62,39.683,101.861,39.618,102.122,39.618z M102.114,40.133c-0.256,0-0.471,0.088-0.645,0.267
		c-0.176,0.177-0.261,0.405-0.261,0.68c0,0.306,0.108,0.547,0.328,0.723c0.171,0.141,0.365,0.213,0.587,0.213
		c0.251,0,0.46-0.094,0.638-0.272c0.175-0.179,0.263-0.4,0.263-0.669c0-0.261-0.09-0.485-0.266-0.667
		C102.582,40.226,102.367,40.133,102.114,40.133z"/>
	<path fill="#FFFFFF" d="M104.317,39.688h0.511l0.643,1.928l0.645-1.928h0.515l0.464,2.765h-0.511l-0.298-1.744l-0.586,1.744h-0.465
		l-0.582-1.744l-0.305,1.744h-0.511L104.317,39.688z"/>
	<path fill="#FFFFFF" d="M108.964,40.064l-0.393,0.344c-0.136-0.193-0.274-0.288-0.416-0.288c-0.071,0-0.127,0.02-0.171,0.056
		c-0.043,0.037-0.065,0.078-0.065,0.128c0,0.045,0.015,0.088,0.049,0.131c0.041,0.052,0.17,0.174,0.385,0.352
		c0.202,0.172,0.323,0.274,0.365,0.321c0.107,0.107,0.182,0.208,0.227,0.31c0.043,0.095,0.067,0.204,0.067,0.322
		c0,0.224-0.077,0.414-0.235,0.561c-0.156,0.15-0.363,0.222-0.613,0.222c-0.197,0-0.367-0.047-0.517-0.146
		c-0.144-0.095-0.268-0.246-0.375-0.455l0.443-0.266c0.132,0.244,0.284,0.369,0.46,0.369c0.091,0,0.166-0.03,0.227-0.082
		c0.063-0.053,0.095-0.112,0.095-0.181c0-0.063-0.023-0.126-0.07-0.188c-0.046-0.064-0.148-0.16-0.307-0.29
		c-0.303-0.244-0.497-0.433-0.584-0.566c-0.091-0.135-0.132-0.269-0.132-0.401c0-0.191,0.073-0.355,0.219-0.492
		c0.146-0.137,0.327-0.206,0.541-0.206c0.139,0,0.267,0.03,0.395,0.096C108.682,39.778,108.817,39.896,108.964,40.064z"/>
	<path fill="#FFFFFF" d="M112.322,41.366l0.314,0.359l-0.142,0.13l-0.141,0.128l0.442,0.469h-0.638l-0.18-0.189
		c-0.292,0.172-0.563,0.259-0.811,0.259c-0.212,0-0.385-0.062-0.517-0.186c-0.128-0.122-0.193-0.285-0.193-0.476
		c0-0.146,0.035-0.286,0.108-0.418c0.075-0.131,0.202-0.262,0.382-0.402c-0.177-0.24-0.265-0.452-0.265-0.639
		c0-0.133,0.056-0.269,0.175-0.402c0.117-0.131,0.284-0.202,0.499-0.202s0.383,0.068,0.499,0.202
		c0.114,0.132,0.171,0.266,0.171,0.395c0,0.107-0.024,0.21-0.076,0.305c-0.053,0.1-0.178,0.24-0.369,0.432
		c0.226,0.261,0.369,0.426,0.435,0.491C112.057,41.591,112.159,41.508,112.322,41.366z M111.637,41.899
		c-0.096-0.098-0.234-0.254-0.41-0.472c-0.185,0.154-0.277,0.286-0.277,0.405c0,0.051,0.027,0.1,0.076,0.148
		c0.053,0.046,0.114,0.064,0.192,0.064C111.329,42.046,111.469,41.996,111.637,41.899z M111.325,40.757
		c0.138-0.119,0.207-0.224,0.207-0.314c0-0.051-0.016-0.09-0.047-0.116c-0.032-0.032-0.07-0.047-0.124-0.047
		c-0.049,0-0.088,0.02-0.122,0.049c-0.034,0.036-0.049,0.073-0.049,0.119C111.19,40.538,111.234,40.641,111.325,40.757z"/>
	<path fill="#FFFFFF" d="M114.078,39.688h0.539l0.696,1.964l0.706-1.964h0.541l-0.998,2.765h-0.507L114.078,39.688z"/>
	<path fill="#FFFFFF" d="M116.983,39.688h1.509v0.515h-0.985v0.5h0.985v0.506h-0.985v0.725h0.985v0.52h-1.509V39.688z"/>
	<path fill="#FFFFFF" d="M118.984,39.688h0.504l1.186,1.82v-1.82h0.522v2.765h-0.503l-1.18-1.814v1.814h-0.529V39.688z"/>
	<path fill="#FFFFFF" d="M121.811,39.688h0.53v1.787c0,0.156,0.013,0.265,0.039,0.325c0.027,0.066,0.073,0.118,0.134,0.155
		c0.063,0.036,0.137,0.06,0.224,0.06c0.096,0,0.174-0.023,0.242-0.067c0.065-0.043,0.113-0.095,0.138-0.16
		c0.026-0.064,0.039-0.193,0.039-0.375v-1.725h0.528v1.649c0,0.276-0.018,0.469-0.046,0.579c-0.031,0.108-0.093,0.209-0.181,0.312
		c-0.09,0.101-0.192,0.174-0.305,0.225c-0.116,0.045-0.25,0.069-0.404,0.069c-0.199,0-0.373-0.047-0.522-0.138
		c-0.148-0.093-0.253-0.206-0.318-0.345c-0.063-0.14-0.098-0.372-0.098-0.702V39.688z"/>
	<path fill="#FFFFFF" d="M124.298,39.688h1.507v0.515h-0.985v0.5h0.985v0.506h-0.985v0.725h0.985v0.52h-1.507V39.688z"/>
</g>
</svg>
