<svg id="Layer_1" data-name="Layer 1" xmlns="http://www.w3.org/2000/svg" viewBox="0 0 500 500"><defs><style>.cls-1{fill:#f89622;}</style></defs><title>tpg-logo</title><path class="cls-1" d="M0,0V265C101.66,141.7,125.15,11.67,125.15,11.67,186.95,247,339.89,374.93,352.76,379.4c26.85,12.86,40.85,1.68,38.89-14C389,349.48,368.16,341.78,348.59,325c-41.11-36.91-22.94-93.25-22.94-93.25,10.63,27.68,28,48.66,70.47,71,52,30.76,58.72,69.91,58.72,83.89s-5.31,78.3,3.08,95.64c0,0-184.28,0-333.27-294.8l-1.91-3.79C92.43,270.34,0,359.83,0,359.83V500H500V0Z" transform="translate(0 0)"/></svg>